<svg width="24" height="24" viewBox="0 0 24 24" fill="none" xmlns="http://www.w3.org/2000/svg">
<g opacity="0.5">
<path d="M12 24C18.6274 24 24 18.6274 24 12C24 5.37258 18.6274 0 12 0C5.37258 0 0 5.37258 0 12C0 18.6274 5.37258 24 12 24Z" fill="#D80027"/>
<path d="M6.56749 7.3042L7.60354 10.4928H10.9561L8.24381 12.4635L9.27979 15.6521L6.56749 13.6814L3.85504 15.6521L4.89116 12.4635L2.17871 10.4928H5.53151L6.56749 7.3042Z" fill="#FFDA44"/>
<path d="M13.0975 17.9096L12.0803 17.1706L11.0632 17.9095L11.4516 16.7138L10.4346 15.9749H11.6918L12.0803 14.7791L12.4689 15.9749H13.7262L12.7089 16.7138L13.0975 17.9096Z" fill="#FFDA44"/>
<path d="M15.7507 14.2572H14.4934L14.1049 15.4529L13.7164 14.2573L12.459 14.2572L13.4763 13.5182L13.0877 12.3225L14.1049 13.0616L15.122 12.3225L14.7334 13.5182L15.7507 14.2572Z" fill="#FFDA44"/>
<path d="M15.7506 9.74284L14.7334 10.4819L15.1219 11.6775L14.1048 10.9386L13.0876 11.6776L13.4762 10.4818L12.459 9.74292L13.7164 9.74277L14.1048 8.54712L14.4933 9.74277L15.7506 9.74284Z" fill="#FFDA44"/>
<path d="M13.0974 6.09065L12.7089 7.28638L13.7261 8.02528L12.4689 8.02535L12.0803 9.22123L11.6917 8.02528L10.4346 8.02543L11.4516 7.2863L11.0631 6.09058L12.0802 6.8297L13.0974 6.09065Z" fill="#FFDA44"/>
</g>
</svg>
