<svg width="24" height="24" viewBox="0 0 24 24" fill="none" xmlns="http://www.w3.org/2000/svg">
  <path
    d="M16.7143 4.92856H3.35714C2.05533 4.92856 1 5.98389 1 7.2857V20.6428C1 21.9446 2.05533 23 3.35714 23H16.7143C18.0161 23 19.0714 21.9446 19.0714 20.6428V7.2857C19.0714 5.98389 18.0161 4.92856 16.7143 4.92856ZM17.5 20.6429C17.5 21.0768 17.1482 21.4286 16.7143 21.4286H3.35714C2.92319 21.4286 2.57141 21.0768 2.57141 20.6429V7.2857C2.57141 6.85175 2.92319 6.49997 3.35714 6.49997H16.7143C17.1482 6.49997 17.5 6.85175 17.5 7.2857V20.6429Z"
    fill="#333333" />
  <path
    d="M20.6431 1H6.50021C5.19839 1 4.14307 2.05533 4.14307 3.35714C4.14307 3.79109 4.49484 4.14287 4.9288 4.14287C5.36275 4.14287 5.71448 3.79109 5.71448 3.35714C5.71448 2.92319 6.06625 2.57141 6.50021 2.57141H20.6431C21.077 2.57141 21.4288 2.92319 21.4288 3.35714V17.5C21.4288 17.9339 21.077 18.2857 20.6431 18.2857C20.2091 18.2857 19.8573 18.6375 19.8573 19.0714C19.8573 19.5054 20.2091 19.8572 20.6431 19.8572C21.9449 19.8572 23.0002 18.8018 23.0002 17.5V3.35714C23.0002 2.05533 21.9449 1 20.6431 1Z"
    fill="#333333" />
</svg>
