<svg width="18" height="18" viewBox="0 0 18 18" fill="none" xmlns="http://www.w3.org/2000/svg">
  <path fill-rule="evenodd" clip-rule="evenodd"
    d="M15.3672 2.63197C11.8573 -0.876759 6.14182 -0.877887 2.63197 2.63197C-0.877887 6.14295 -0.876759 11.8573 2.63197 15.3683C6.14182 18.877 11.8562 18.8782 15.3672 15.3683C18.8782 11.8562 18.877 6.14295 15.3672 2.63197ZM4.01854 13.9817C1.26684 11.2312 1.26458 6.75783 4.01064 4.01177C6.7567 1.26458 11.23 1.26797 13.9817 4.01854C16.7323 6.76911 16.7334 11.2436 13.9885 13.9896C11.2402 16.7357 6.76798 16.7323 4.01854 13.9817Z"
    fill="#EB5757" />
  <path fill-rule="evenodd" clip-rule="evenodd"
    d="M11.4391 12.4387C11.2338 12.4387 11.0792 12.3575 11.0014 12.2797L9.00786 10.2884L7.09554 12.2007C7.02108 12.2751 6.84847 12.3654 6.61831 12.3654C6.4457 12.3654 6.18508 12.3135 5.938 12.0664C5.68867 11.8182 5.63339 11.5723 5.63226 11.4121C5.62774 11.2 5.7101 11.0398 5.79021 10.9608L7.73524 9.01462L5.83985 7.12149C5.66836 6.94887 5.52508 6.4141 5.97523 5.96508C6.22908 5.71123 6.47841 5.6582 6.64426 5.6582C6.85072 5.6582 7.00529 5.73943 7.08088 5.81728L9.00786 7.742L10.9213 5.82856C10.998 5.75297 11.1695 5.66384 11.3997 5.66384C11.5734 5.66384 11.834 5.71574 12.0811 5.96395C12.5076 6.39154 12.4218 6.8778 12.2289 7.06959L10.2816 9.01688L12.2413 10.9754C12.3169 11.0522 12.406 11.2237 12.406 11.4538C12.406 11.6276 12.3552 11.8859 12.107 12.133C11.8532 12.3857 11.605 12.4387 11.4391 12.4387Z"
    fill="#EB5757" />
</svg>
