<svg width="30" height="30" viewBox="0 0 30 30" fill="none" xmlns="http://www.w3.org/2000/svg">
<circle opacity="0.1" cx="15" cy="15" r="15" fill="#fff"/>
<path d="M21.6828 10.5919C21.4628 10.6894 21.2367 10.7717 21.0056 10.8386C21.2792 10.5292 21.4877 10.1652 21.6151 9.7669C21.6436 9.67762 21.614 9.57989 21.5406 9.52149C21.4673 9.46306 21.3655 9.45606 21.2848 9.50388C20.7941 9.7949 20.2647 10.004 19.7097 10.1263C19.1505 9.57998 18.3911 9.26904 17.606 9.26904C15.9488 9.26904 14.6006 10.6172 14.6006 12.2744C14.6006 12.4049 14.6088 12.5347 14.6252 12.6627C12.5688 12.4821 10.6569 11.4714 9.3441 9.86097C9.29731 9.80357 9.22524 9.77264 9.15144 9.77855C9.0776 9.78433 9.01126 9.82597 8.97396 9.88997C8.70769 10.3469 8.56692 10.8694 8.56692 11.4011C8.56692 12.1253 8.82547 12.8124 9.28218 13.3492C9.14331 13.3011 9.00855 13.241 8.87993 13.1696C8.81088 13.1312 8.72661 13.1318 8.65801 13.1711C8.58936 13.2104 8.54633 13.2828 8.54452 13.3619C8.5442 13.3752 8.5442 13.3885 8.5442 13.402C8.5442 14.483 9.12597 15.4561 10.0154 15.9866C9.93901 15.9789 9.86264 15.9679 9.78677 15.9534C9.70855 15.9384 9.62812 15.9658 9.57537 16.0255C9.52253 16.0851 9.50505 16.1682 9.5294 16.2441C9.85862 17.2719 10.7063 18.028 11.731 18.2585C10.8811 18.7908 9.90916 19.0696 8.88887 19.0696C8.67598 19.0696 8.46187 19.0571 8.25233 19.0323C8.14823 19.02 8.04869 19.0814 8.01324 19.1804C7.97779 19.2795 8.01536 19.3899 8.10393 19.4466C9.41464 20.287 10.9302 20.7313 12.4867 20.7313C15.5466 20.7313 17.4607 19.2883 18.5276 18.0779C19.8581 16.5686 20.6211 14.5708 20.6211 12.5968C20.6211 12.5143 20.6199 12.4311 20.6174 12.348C21.1423 11.9526 21.5942 11.474 21.9619 10.9238C22.0178 10.8403 22.0118 10.7299 21.947 10.653C21.8824 10.576 21.7747 10.5511 21.6828 10.5919Z" fill="#fff"/>
</svg>
