<svg width="30" height="30" viewBox="0 0 30 30" fill="none" xmlns="http://www.w3.org/2000/svg">
<circle opacity="0.1" cx="15" cy="15" r="15" fill="#fff"/>
<path d="M20.6304 9.97852H9.36957C8.66044 9.97852 8.0761 10.5203 8.0061 11.2111L14.0626 17.2676C14.5496 17.7546 15.4231 17.782 15.9679 17.2372L21.994 11.2111C21.9239 10.5203 21.3396 9.97852 20.6304 9.97852Z" fill="#fff"/>
<path d="M16.6133 17.8823C16.1817 18.3142 15.6057 18.5519 14.9917 18.5519C14.397 18.5519 13.823 18.3192 13.417 17.9129L8 12.4961V18.6521C8 19.4069 8.6148 20.0217 9.36957 20.0217H20.6304C21.3852 20.0217 22 19.4069 22 18.6521V12.4961L16.6133 17.8823Z" fill="#fff"/>
</svg>
