<svg width="20" height="20" viewBox="0 0 20 20" fill="none" xmlns="http://www.w3.org/2000/svg">
<path d="M10 0C4.47715 0 0 4.47715 0 10C0 15.5229 4.47715 20 10 20C15.5229 20 20 15.5229 20 10C20 4.47715 15.5229 0 10 0ZM6.48195 13.9795C6.48195 14.2424 6.26879 14.4556 6.00586 14.4556H4.57766C4.31473 14.4556 4.10156 14.2424 4.10156 13.9795V8.02855C4.10156 7.76562 4.31473 7.55246 4.57766 7.55246H6.00586C6.26879 7.55246 6.48195 7.76562 6.48195 8.02855V13.9795ZM16.2481 9.13785L15.1394 13.3879C14.9753 14.0168 14.4073 14.4555 13.7574 14.4555H9.81445C8.76273 14.4555 7.91016 13.603 7.91016 12.5513V8.34129C7.91016 7.83625 8.11078 7.35187 8.46793 6.99477L11.2357 4.22699C11.3926 4.07008 11.6054 3.98195 11.8273 3.98195C12.4589 3.98195 12.8627 4.655 12.5655 5.2123L11.6982 6.8384C11.5257 7.16188 11.7601 7.5525 12.1267 7.5525H15.0233C15.7224 7.5525 16.2891 8.11922 16.2891 8.81832C16.2891 8.92613 16.2753 9.03352 16.2481 9.13785Z" fill="#F5545E"/>
</svg>
