<svg width="114" height="11" viewBox="0 0 114 11" fill="none" xmlns="http://www.w3.org/2000/svg">
<path opacity="0.5" d="M5.161 0.847999C6.03633 0.847999 6.81633 1.04733 7.501 1.446C8.18567 1.836 8.71433 2.382 9.087 3.084C9.46833 3.77733 9.659 4.57033 9.659 5.463C9.659 6.35567 9.46833 7.153 9.087 7.855C8.71433 8.54833 8.18567 9.09433 7.501 9.493C6.81633 9.883 6.03633 10.078 5.161 10.078C4.277 10.078 3.49267 9.883 2.808 9.493C2.12333 9.09433 1.59033 8.54833 1.209 7.855C0.827667 7.153 0.637 6.35567 0.637 5.463C0.637 4.57033 0.827667 3.77733 1.209 3.084C1.59033 2.382 2.12333 1.836 2.808 1.446C3.49267 1.04733 4.277 0.847999 5.161 0.847999ZM5.161 1.368C4.355 1.368 3.653 1.54133 3.055 1.888C2.457 2.226 1.99767 2.70267 1.677 3.318C1.35633 3.93333 1.196 4.64833 1.196 5.463C1.196 6.269 1.35633 6.984 1.677 7.608C1.99767 8.22333 2.457 8.70433 3.055 9.051C3.653 9.39767 4.355 9.571 5.161 9.571C5.95833 9.571 6.65167 9.39767 7.241 9.051C7.839 8.70433 8.29833 8.22333 8.619 7.608C8.93967 6.984 9.1 6.269 9.1 5.463C9.1 4.64833 8.93967 3.93333 8.619 3.318C8.29833 2.70267 7.839 2.226 7.241 1.888C6.65167 1.54133 5.95833 1.368 5.161 1.368ZM5.135 2.447C4.615 2.447 4.13833 2.56833 3.705 2.811C3.28033 3.05367 2.94233 3.40467 2.691 3.864C2.43967 4.31467 2.314 4.84333 2.314 5.45C2.314 6.05667 2.43967 6.58967 2.691 7.049C2.94233 7.49967 3.28033 7.85067 3.705 8.102C4.13833 8.34467 4.615 8.466 5.135 8.466C5.785 8.466 6.34833 8.29267 6.825 7.946C7.30167 7.59067 7.62667 7.11833 7.8 6.529H6.708C6.448 7.24833 5.92367 7.608 5.135 7.608C4.615 7.608 4.19033 7.42167 3.861 7.049C3.53167 6.67633 3.367 6.14767 3.367 5.463C3.367 4.76967 3.53167 4.23667 3.861 3.864C4.19033 3.49133 4.615 3.305 5.135 3.305C5.51633 3.305 5.84567 3.40033 6.123 3.591C6.40033 3.773 6.59533 4.03733 6.708 4.384H7.8C7.63533 3.76867 7.31467 3.292 6.838 2.954C6.36133 2.616 5.79367 2.447 5.135 2.447ZM14.4247 9.051C15.5254 8.167 16.3877 7.44333 17.0117 6.88C17.6357 6.308 18.1601 5.71433 18.5847 5.099C19.0181 4.475 19.2347 3.864 19.2347 3.266C19.2347 2.70267 19.0961 2.26067 18.8187 1.94C18.5501 1.61067 18.1124 1.446 17.5057 1.446C16.9164 1.446 16.4571 1.63233 16.1277 2.005C15.8071 2.369 15.6337 2.85867 15.6077 3.474H14.4637C14.4984 2.50333 14.7931 1.75367 15.3477 1.225C15.9024 0.696333 16.6174 0.431999 17.4927 0.431999C18.3854 0.431999 19.0917 0.678999 19.6117 1.173C20.1404 1.667 20.4047 2.34733 20.4047 3.214C20.4047 3.93333 20.1881 4.63533 19.7547 5.32C19.3301 5.996 18.8447 6.594 18.2987 7.114C17.7527 7.62533 17.0551 8.22333 16.2057 8.908H20.6777V9.896H14.4247V9.051ZM22.0453 5.203C22.0453 3.71233 22.2879 2.551 22.7733 1.719C23.2586 0.878333 24.1079 0.458 25.3213 0.458C26.5259 0.458 27.3709 0.878333 27.8563 1.719C28.3416 2.551 28.5843 3.71233 28.5843 5.203C28.5843 6.71967 28.3416 7.89833 27.8563 8.739C27.3709 9.57967 26.5259 10 25.3213 10C24.1079 10 23.2586 9.57967 22.7733 8.739C22.2879 7.89833 22.0453 6.71967 22.0453 5.203ZM27.4143 5.203C27.4143 4.449 27.3623 3.812 27.2583 3.292C27.1629 2.76333 26.9593 2.33867 26.6473 2.018C26.3439 1.69733 25.9019 1.537 25.3213 1.537C24.7319 1.537 24.2813 1.69733 23.9693 2.018C23.6659 2.33867 23.4623 2.76333 23.3583 3.292C23.2629 3.812 23.2153 4.449 23.2153 5.203C23.2153 5.983 23.2629 6.63733 23.3583 7.166C23.4623 7.69467 23.6659 8.11933 23.9693 8.44C24.2813 8.76067 24.7319 8.921 25.3213 8.921C25.9019 8.921 26.3439 8.76067 26.6473 8.44C26.9593 8.11933 27.1629 7.69467 27.2583 7.166C27.3623 6.63733 27.4143 5.983 27.4143 5.203ZM30.0653 9.051C31.166 8.167 32.0283 7.44333 32.6523 6.88C33.2763 6.308 33.8007 5.71433 34.2253 5.099C34.6587 4.475 34.8753 3.864 34.8753 3.266C34.8753 2.70267 34.7367 2.26067 34.4593 1.94C34.1907 1.61067 33.753 1.446 33.1463 1.446C32.557 1.446 32.0977 1.63233 31.7683 2.005C31.4477 2.369 31.2743 2.85867 31.2483 3.474H30.1043C30.139 2.50333 30.4337 1.75367 30.9883 1.225C31.543 0.696333 32.258 0.431999 33.1333 0.431999C34.026 0.431999 34.7323 0.678999 35.2523 1.173C35.781 1.667 36.0453 2.34733 36.0453 3.214C36.0453 3.93333 35.8287 4.63533 35.3953 5.32C34.9707 5.996 34.4853 6.594 33.9393 7.114C33.3933 7.62533 32.6957 8.22333 31.8463 8.908H36.3183V9.896H30.0653V9.051ZM37.6599 2.967C37.7205 2.16967 38.0282 1.54567 38.5829 1.095C39.1375 0.644333 39.8569 0.418999 40.7409 0.418999C41.3302 0.418999 41.8372 0.527333 42.2619 0.744C42.6952 0.952 43.0202 1.238 43.2369 1.602C43.4622 1.966 43.5749 2.37767 43.5749 2.837C43.5749 3.37433 43.4189 3.838 43.1069 4.228C42.8035 4.618 42.4049 4.86933 41.9109 4.982V5.047C42.4742 5.18567 42.9205 5.45867 43.2499 5.866C43.5792 6.27333 43.7439 6.80633 43.7439 7.465C43.7439 7.959 43.6312 8.40533 43.4059 8.804C43.1805 9.194 42.8425 9.50167 42.3919 9.727C41.9412 9.95233 41.3995 10.065 40.7669 10.065C39.8482 10.065 39.0942 9.82667 38.5049 9.35C37.9155 8.86467 37.5862 8.18 37.5169 7.296H38.6609C38.7215 7.816 38.9339 8.24067 39.2979 8.57C39.6619 8.89933 40.1472 9.064 40.7539 9.064C41.3605 9.064 41.8199 8.908 42.1319 8.596C42.4525 8.27533 42.6129 7.86367 42.6129 7.361C42.6129 6.711 42.3962 6.243 41.9629 5.957C41.5295 5.671 40.8752 5.528 39.9999 5.528H39.7009V4.54H40.0129C40.8102 4.53133 41.4125 4.40133 41.8199 4.15C42.2272 3.89 42.4309 3.49133 42.4309 2.954C42.4309 2.49467 42.2792 2.12633 41.9759 1.849C41.6812 1.57167 41.2565 1.433 40.7019 1.433C40.1645 1.433 39.7312 1.57167 39.4019 1.849C39.0725 2.12633 38.8775 2.499 38.8169 2.967H37.6599ZM55.866 3.565C55.6146 3.03633 55.2506 2.629 54.774 2.343C54.2973 2.04833 53.7426 1.901 53.11 1.901C52.4773 1.901 51.9053 2.04833 51.394 2.343C50.8913 2.629 50.4926 3.045 50.198 3.591C49.912 4.12833 49.769 4.75233 49.769 5.463C49.769 6.17367 49.912 6.79767 50.198 7.335C50.4926 7.87233 50.8913 8.28833 51.394 8.583C51.9053 8.869 52.4773 9.012 53.11 9.012C53.994 9.012 54.722 8.74767 55.294 8.219C55.866 7.69033 56.1996 6.97533 56.295 6.074H52.681V5.112H57.556V6.022C57.4866 6.76733 57.2526 7.452 56.854 8.076C56.4553 8.69133 55.931 9.181 55.281 9.545C54.631 9.90033 53.9073 10.078 53.11 10.078C52.2693 10.078 51.5023 9.883 50.809 9.493C50.1156 9.09433 49.5653 8.544 49.158 7.842C48.7593 7.14 48.56 6.347 48.56 5.463C48.56 4.579 48.7593 3.786 49.158 3.084C49.5653 2.37333 50.1156 1.823 50.809 1.433C51.5023 1.03433 52.2693 0.834999 53.11 0.834999C54.072 0.834999 54.9213 1.07333 55.658 1.55C56.4033 2.02667 56.945 2.69833 57.283 3.565H55.866ZM65.6201 6.165C65.6201 6.39033 65.6071 6.62867 65.5811 6.88H59.8871C59.9305 7.582 60.1688 8.13233 60.6021 8.531C61.0441 8.921 61.5771 9.116 62.2011 9.116C62.7125 9.116 63.1371 8.999 63.4751 8.765C63.8218 8.52233 64.0645 8.20167 64.2031 7.803H65.4771C65.2865 8.48767 64.9051 9.04667 64.3331 9.48C63.7611 9.90467 63.0505 10.117 62.2011 10.117C61.5251 10.117 60.9185 9.96533 60.3811 9.662C59.8525 9.35867 59.4365 8.92967 59.1331 8.375C58.8298 7.81167 58.6781 7.16167 58.6781 6.425C58.6781 5.68833 58.8255 5.04267 59.1201 4.488C59.4148 3.93333 59.8265 3.50867 60.3551 3.214C60.8925 2.91067 61.5078 2.759 62.2011 2.759C62.8771 2.759 63.4751 2.90633 63.9951 3.201C64.5151 3.49567 64.9138 3.903 65.1911 4.423C65.4771 4.93433 65.6201 5.515 65.6201 6.165ZM64.3981 5.918C64.3981 5.46733 64.2985 5.08167 64.0991 4.761C63.8998 4.43167 63.6268 4.18467 63.2801 4.02C62.9421 3.84667 62.5651 3.76 62.1491 3.76C61.5511 3.76 61.0398 3.95067 60.6151 4.332C60.1991 4.71333 59.9608 5.242 59.9001 5.918H64.3981ZM75.7487 2.746C76.3033 2.746 76.7973 2.863 77.2307 3.097C77.664 3.32233 78.0063 3.66467 78.2577 4.124C78.509 4.58333 78.6347 5.14233 78.6347 5.801V10H77.4647V5.97C77.4647 5.25933 77.287 4.71767 76.9317 4.345C76.585 3.96367 76.1127 3.773 75.5147 3.773C74.8993 3.773 74.4097 3.97233 74.0457 4.371C73.6817 4.761 73.4997 5.32867 73.4997 6.074V10H72.3297V5.97C72.3297 5.25933 72.152 4.71767 71.7967 4.345C71.45 3.96367 70.9777 3.773 70.3797 3.773C69.7643 3.773 69.2747 3.97233 68.9107 4.371C68.5467 4.761 68.3647 5.32867 68.3647 6.074V10H67.1817V2.876H68.3647V3.903C68.5987 3.53033 68.9107 3.24433 69.3007 3.045C69.6993 2.84567 70.137 2.746 70.6137 2.746C71.2117 2.746 71.7403 2.88033 72.1997 3.149C72.659 3.41767 73.0013 3.812 73.2267 4.332C73.426 3.82933 73.7553 3.43933 74.2147 3.162C74.674 2.88467 75.1853 2.746 75.7487 2.746ZM87.6992 10H86.5162L81.7582 2.785V10H80.5752V0.926H81.7582L86.5162 8.128V0.926H87.6992V10ZM92.8228 10.117C92.1555 10.117 91.5488 9.96533 91.0028 9.662C90.4655 9.35867 90.0408 8.92967 89.7288 8.375C89.4255 7.81167 89.2738 7.16167 89.2738 6.425C89.2738 5.697 89.4298 5.05567 89.7418 4.501C90.0625 3.93767 90.4958 3.50867 91.0418 3.214C91.5878 2.91067 92.1988 2.759 92.8748 2.759C93.5508 2.759 94.1618 2.91067 94.7078 3.214C95.2538 3.50867 95.6828 3.93333 95.9948 4.488C96.3155 5.04267 96.4758 5.68833 96.4758 6.425C96.4758 7.16167 96.3112 7.81167 95.9818 8.375C95.6612 8.92967 95.2235 9.35867 94.6688 9.662C94.1142 9.96533 93.4988 10.117 92.8228 10.117ZM92.8228 9.077C93.2475 9.077 93.6462 8.97733 94.0188 8.778C94.3915 8.57867 94.6905 8.27967 94.9158 7.881C95.1498 7.48233 95.2668 6.997 95.2668 6.425C95.2668 5.853 95.1542 5.36767 94.9288 4.969C94.7035 4.57033 94.4088 4.27567 94.0448 4.085C93.6808 3.88567 93.2865 3.786 92.8618 3.786C92.4285 3.786 92.0298 3.88567 91.6658 4.085C91.3105 4.27567 91.0245 4.57033 90.8078 4.969C90.5912 5.36767 90.4828 5.853 90.4828 6.425C90.4828 7.00567 90.5868 7.49533 90.7948 7.894C91.0115 8.29267 91.2975 8.59167 91.6528 8.791C92.0082 8.98167 92.3982 9.077 92.8228 9.077ZM97.5893 6.412C97.5893 5.684 97.7366 5.047 98.0313 4.501C98.3259 3.94633 98.7289 3.51733 99.2403 3.214C99.7603 2.91067 100.341 2.759 100.982 2.759C101.537 2.759 102.053 2.889 102.529 3.149C103.006 3.40033 103.37 3.734 103.621 4.15V0.38H104.817V10H103.621V8.661C103.387 9.08567 103.041 9.43667 102.581 9.714C102.122 9.98267 101.585 10.117 100.969 10.117C100.337 10.117 99.7603 9.961 99.2403 9.649C98.7289 9.337 98.3259 8.89933 98.0313 8.336C97.7366 7.77267 97.5893 7.13133 97.5893 6.412ZM103.621 6.425C103.621 5.88767 103.513 5.41967 103.296 5.021C103.08 4.62233 102.785 4.319 102.412 4.111C102.048 3.89433 101.645 3.786 101.203 3.786C100.761 3.786 100.358 3.89 99.9943 4.098C99.6303 4.306 99.3399 4.60933 99.1233 5.008C98.9066 5.40667 98.7983 5.87467 98.7983 6.412C98.7983 6.958 98.9066 7.43467 99.1233 7.842C99.3399 8.24067 99.6303 8.54833 99.9943 8.765C100.358 8.973 100.761 9.077 101.203 9.077C101.645 9.077 102.048 8.973 102.412 8.765C102.785 8.54833 103.08 8.24067 103.296 7.842C103.513 7.43467 103.621 6.96233 103.621 6.425ZM113.316 6.165C113.316 6.39033 113.303 6.62867 113.277 6.88H107.583C107.627 7.582 107.865 8.13233 108.298 8.531C108.74 8.921 109.273 9.116 109.897 9.116C110.409 9.116 110.833 8.999 111.171 8.765C111.518 8.52233 111.761 8.20167 111.899 7.803H113.173C112.983 8.48767 112.601 9.04667 112.029 9.48C111.457 9.90467 110.747 10.117 109.897 10.117C109.221 10.117 108.615 9.96533 108.077 9.662C107.549 9.35867 107.133 8.92967 106.829 8.375C106.526 7.81167 106.374 7.16167 106.374 6.425C106.374 5.68833 106.522 5.04267 106.816 4.488C107.111 3.93333 107.523 3.50867 108.051 3.214C108.589 2.91067 109.204 2.759 109.897 2.759C110.573 2.759 111.171 2.90633 111.691 3.201C112.211 3.49567 112.61 3.903 112.887 4.423C113.173 4.93433 113.316 5.515 113.316 6.165ZM112.094 5.918C112.094 5.46733 111.995 5.08167 111.795 4.761C111.596 4.43167 111.323 4.18467 110.976 4.02C110.638 3.84667 110.261 3.76 109.845 3.76C109.247 3.76 108.736 3.95067 108.311 4.332C107.895 4.71333 107.657 5.242 107.596 5.918H112.094Z" fill="white"/>
</svg>
