<svg width="24" height="23" viewBox="0 0 24 23" fill="none" xmlns="http://www.w3.org/2000/svg">
<g clip-path="url(#clip0_1485_111857)">
<path d="M7.19861 16.5738C6.51714 17.0482 5.82899 17.3889 5.09407 17.6294C4.18544 17.9301 3.47725 17.3422 3.60419 16.3934C3.65096 16.0527 3.71777 15.7187 3.77122 15.3846C3.84471 14.9771 3.61755 14.6965 3.20332 14.6898C2.9294 14.6831 2.65548 14.6898 2.38155 14.6898C1.51301 14.6764 0.804815 13.9816 0.804815 13.113C0.798134 9.53198 0.798134 5.95092 0.804815 2.36986C0.804815 1.5414 1.45956 0.859934 2.28802 0.806486C2.37487 0.799805 2.46841 0.799805 2.55526 0.799805C7.42577 0.799805 12.303 0.799805 17.1735 0.799805C18.042 0.799805 18.65 1.21403 18.8638 1.96231C18.9172 2.14938 18.9373 2.33645 18.9373 2.5302C18.9373 3.8397 18.9373 5.14919 18.9306 6.45868C18.9306 6.63239 18.964 6.67916 19.1444 6.67916C19.9595 6.66579 20.7746 6.67248 21.5963 6.67248C22.4916 6.67916 23.1931 7.37399 23.1931 8.27594C23.1998 11.857 23.2065 15.4381 23.1864 19.0191C23.1798 19.6204 23.0194 20.2217 22.9259 20.823C22.9058 20.9633 22.8791 21.1036 22.8524 21.2439C22.7722 21.6849 22.5117 21.9788 22.0841 22.1125C21.6765 22.2394 21.3091 22.1525 21.0017 21.8586C20.2869 21.1704 19.5653 20.489 18.8571 19.7941C18.6567 19.6004 18.4429 19.5135 18.1689 19.5135C15.0957 19.5202 12.0224 19.5002 8.94905 19.5269C7.84668 19.5402 7.11844 18.6917 7.19193 17.7698C7.21865 17.4557 7.19861 17.135 7.19861 16.821C7.19861 16.7475 7.19861 16.6807 7.19861 16.5738Z" fill="black" stroke="black" stroke-width="0.7"/>
<path d="M18.9305 9.23789C18.7835 8.89715 18.5697 8.77021 18.2825 8.83034C18.0152 8.88379 17.8615 9.10426 17.8615 9.45836C17.8615 10.6209 17.8615 11.7767 17.8615 12.9392C17.8615 13.4536 17.6812 13.6274 17.1667 13.6274C14.6346 13.6274 12.1025 13.634 9.57032 13.6207C8.89553 13.614 8.39445 13.8612 7.98022 14.389C7.13173 15.4713 6.03603 16.2129 4.68645 16.6472C4.74658 16.2463 4.80671 15.8789 4.86684 15.5047C5.02718 14.5293 4.32567 13.6608 3.34355 13.6274C3.07631 13.6207 2.80907 13.6274 2.54182 13.6207C2.0541 13.6207 1.86035 13.4202 1.86035 12.9392C1.86035 9.93272 1.86035 6.93291 1.86035 3.92643C1.86035 3.45207 1.86035 2.97771 1.86035 2.49667C1.86703 2.07577 2.06747 1.86865 2.48837 1.86865C7.40565 1.86865 12.3162 1.86865 17.2335 1.86865C17.6678 1.86865 17.8615 2.0624 17.8615 2.49667C17.8615 4.04 17.8615 5.58333 17.8549 7.12666C17.8549 7.53421 18.082 7.76137 18.4896 7.748C18.6365 7.74132 18.7902 7.75469 18.9372 7.75469C19.0708 7.98184 19.0708 9.02409 18.9305 9.23789Z" fill="#8AC9FE"/>
<path d="M18.9304 9.2381C18.9304 8.7437 18.9304 8.2493 18.9371 7.74822C19.819 7.74154 20.7009 7.73486 21.5828 7.74154C21.9168 7.74154 22.1106 7.96201 22.1306 8.30275C22.1373 8.38292 22.1306 8.46977 22.1306 8.54995C22.1306 11.523 22.1106 14.4894 22.1373 17.4625C22.1507 18.5916 22.0304 19.6873 21.8099 20.7897C21.7966 20.8699 21.7832 20.95 21.7698 21.0369C21.6563 21.0569 21.6229 20.9634 21.5694 20.91C20.8946 20.2619 20.2198 19.6205 19.5517 18.9658C19.1776 18.5983 18.75 18.4313 18.2289 18.4313C15.1556 18.4379 12.0823 18.4313 9.00897 18.4313C8.42104 18.4313 8.25401 18.2642 8.25401 17.6696C8.25401 17.0683 8.25401 16.467 8.25401 15.8657C8.25401 15.7989 8.23397 15.7121 8.26737 15.672C8.5413 15.358 8.76177 14.9972 9.09583 14.7433C9.20272 14.6631 9.34971 14.6832 9.48333 14.6832C12.0489 14.6832 14.6144 14.6832 17.1799 14.6832C18.2623 14.6832 18.9237 14.0218 18.9237 12.9394C18.9371 11.7101 18.9304 10.4741 18.9304 9.2381Z" fill="#FEC93A"/>
<path d="M9.8507 5.0763C8.28733 5.0763 6.71728 5.0763 5.1539 5.0763C4.88666 5.0763 4.67955 4.98276 4.57265 4.72888C4.43903 4.40151 4.6595 4.05409 5.0136 4.01401C5.09377 4.00732 5.18063 4.00732 5.2608 4.00732C8.32742 4.00732 11.3874 4.00732 14.454 4.00732C14.4941 4.00732 14.5341 4.00732 14.5809 4.00732C14.9617 4.01401 15.2023 4.22112 15.1956 4.54181C15.1889 4.8625 14.9484 5.06962 14.5675 5.06962C12.9975 5.0763 11.4208 5.0763 9.8507 5.0763Z" fill="black" stroke="black" stroke-width="0.5"/>
<path d="M9.89743 7.21407C11.4608 7.21407 13.0309 7.21407 14.5942 7.21407C15.0686 7.21407 15.3425 7.62162 15.122 8.00244C15.0085 8.20287 14.8281 8.27636 14.6009 8.27636C13.8125 8.27636 13.0175 8.27636 12.2291 8.27636C9.87071 8.27636 7.51896 8.27636 5.16054 8.27636C4.76636 8.27636 4.53252 8.06257 4.5392 7.72183C4.54588 7.45459 4.73295 7.24748 5.0002 7.22075C5.1405 7.20739 5.2808 7.21407 5.42779 7.21407C6.91767 7.21407 8.40755 7.21407 9.89743 7.21407Z" fill="black" stroke="black" stroke-width="0.5"/>
<path d="M7.71984 11.4827C6.84461 11.4827 5.97607 11.4827 5.10085 11.4827C4.84697 11.4827 4.6599 11.3691 4.57305 11.1353C4.49287 10.9282 4.53296 10.7277 4.69999 10.5607C4.80688 10.4538 4.9405 10.4204 5.08749 10.4204C6.85129 10.4204 8.6151 10.4204 10.3789 10.4204C10.6996 10.4204 10.9268 10.6476 10.9334 10.9415C10.9334 11.2422 10.6996 11.476 10.3655 11.476C9.48364 11.4894 8.60174 11.4827 7.71984 11.4827Z" fill="black" stroke="black" stroke-width="0.5"/>
</g>
<defs>
<clipPath id="clip0_1485_111857">
<rect width="24" height="22.8905" fill="white"/>
</clipPath>
</defs>
</svg>
