<svg width="30" height="19" viewBox="0 0 30 19" fill="none" xmlns="http://www.w3.org/2000/svg">
  <path
    d="M6.14162 3.9558C11.034 -0.834226 18.9661 -0.834226 23.8584 3.9558L24.4472 4.53229C24.6918 4.77179 24.6918 5.1601 24.4472 5.3996L22.433 7.37165C22.3107 7.4914 22.1124 7.4914 21.9901 7.37165L21.1799 6.57834C17.7668 3.23669 12.2332 3.23669 8.82018 6.57834L7.95246 7.42791C7.83015 7.54766 7.63184 7.54766 7.50954 7.42791L5.49536 5.45586C5.25074 5.21636 5.25074 4.82805 5.49536 4.58855L6.14162 3.9558ZM28.0239 8.03421L29.8165 9.78935C30.0612 10.0288 30.0612 10.4172 29.8165 10.6567L21.7335 18.5708C21.4889 18.8103 21.0923 18.8103 20.8477 18.5708C20.8476 18.5708 20.8476 18.5708 20.8476 18.5708L15.1108 12.9539C15.0496 12.894 14.9505 12.894 14.8893 12.9539C14.8893 12.9539 14.8893 12.9539 14.8893 12.9539L9.15259 18.5708C8.90797 18.8103 8.51137 18.8103 8.26675 18.5708C8.26675 18.5708 8.26674 18.5708 8.26674 18.5708L0.183463 10.6566C-0.0611546 10.4171 -0.0611546 10.0287 0.183463 9.78924L1.97609 8.03411C2.2207 7.79461 2.61731 7.79461 2.86193 8.03411L8.59887 13.6511C8.66002 13.7109 8.75918 13.7109 8.82033 13.6511C8.82033 13.6511 8.82033 13.6511 8.82033 13.6511L14.557 8.03411C14.8016 7.7946 15.1982 7.79459 15.4428 8.03409C15.4428 8.03409 15.4428 8.0341 15.4428 8.0341L21.1798 13.6511C21.2409 13.7109 21.3401 13.7109 21.4012 13.6511L27.1381 8.03421C27.3827 7.79471 27.7793 7.79471 28.0239 8.03421Z"
    fill="#00A3FF" />
</svg>
