<svg width="20" height="20" viewBox="0 0 20 20" fill="none" xmlns="http://www.w3.org/2000/svg">
  <path
    d="M20 15.6055C20 18.0234 18.0234 20 15.6055 20H4.39453C1.97656 20 0 18.0234 0 15.6055V4.39453C0 1.97656 1.97656 0 4.39453 0H15.6055C18.0234 0 20 1.97656 20 4.39453V15.6055Z"
    fill="white" />
  <path
    d="M11.7083 14.0399L11.7118 12.7697L9.88626 11.7157C9.85992 11.7004 9.83374 11.6844 9.80773 11.6677L9.80357 11.6651C9.77846 11.6491 9.75351 11.6331 9.72856 11.6152C9.71992 11.6093 9.71144 11.6031 9.70281 11.597C9.68681 11.5853 9.66986 11.5735 9.65354 11.5613C9.64331 11.5537 9.63323 11.5453 9.62316 11.5381C9.60828 11.5268 9.59357 11.5153 9.57901 11.5034C9.56835 11.4947 9.55769 11.4858 9.54702 11.4769C9.53295 11.4653 9.51893 11.4534 9.50496 11.4414C9.4943 11.4319 9.48363 11.4223 9.47297 11.4127C9.45922 11.4006 9.44557 11.3882 9.43203 11.3756C9.42115 11.3656 9.41028 11.3556 9.40004 11.3454C9.38628 11.3323 9.37269 11.319 9.35909 11.3057C9.34918 11.296 9.3391 11.2862 9.32919 11.2763C9.31495 11.2619 9.30088 11.2474 9.2868 11.2327C9.27784 11.2232 9.26873 11.2139 9.25993 11.2045C9.24394 11.1869 9.22794 11.169 9.21115 11.1509L9.19308 11.1309C9.1709 11.1058 9.14904 11.0802 9.1275 11.0543C9.12254 11.0484 9.1179 11.0423 9.11295 11.0364C9.09695 11.0161 9.07968 10.9956 9.06336 10.975C9.04364 10.9498 9.02423 10.9243 9.00515 10.8985L8.99539 10.8857C8.96436 10.8437 8.93429 10.8005 8.90486 10.7568L8.88887 10.7328C8.85187 10.6772 8.81631 10.6206 8.78219 10.563L8.76907 10.5411C8.7453 10.5003 8.72221 10.4592 8.69982 10.4176C8.69166 10.4024 8.68383 10.3872 8.67599 10.372C8.66815 10.3568 8.65999 10.34 8.65104 10.324C8.63968 10.3013 8.62865 10.2786 8.61761 10.2557C8.61409 10.2484 8.61041 10.241 8.60689 10.2337C8.59303 10.2041 8.57954 10.1744 8.56643 10.1446C8.56307 10.1367 8.55971 10.1286 8.55651 10.1212C8.54692 10.099 8.53753 10.0768 8.52836 10.0544L8.51605 10.0238C8.50762 10.0025 8.49936 9.98117 8.49126 9.95984C8.48774 9.95057 8.48422 9.94113 8.4807 9.93185C8.47078 9.90466 8.46119 9.87742 8.45191 9.85012L8.44823 9.83957C8.43757 9.80886 8.42776 9.77815 8.4188 9.74744C8.41576 9.73768 8.41305 9.72793 8.41033 9.71817C8.40409 9.69674 8.39785 9.67531 8.39209 9.6542C8.38889 9.64252 8.38586 9.63084 8.38282 9.61917C8.3777 9.59934 8.37274 9.57956 8.36794 9.55983C8.36517 9.5481 8.36245 9.53637 8.35979 9.52464C8.35515 9.50433 8.35083 9.48402 8.34667 9.46387C8.34443 9.45315 8.34219 9.44227 8.34011 9.43188C8.3351 9.40586 8.33046 9.37995 8.3262 9.35415C8.3262 9.34967 8.3246 9.34519 8.32396 9.34071C8.31916 9.31043 8.3149 9.2802 8.31116 9.25003C8.3102 9.24187 8.3094 9.23403 8.30844 9.22555C8.30599 9.2037 8.30375 9.18189 8.30173 9.16014C8.30077 9.1499 8.30013 9.13967 8.29933 9.12959C8.29773 9.10912 8.29661 9.0888 8.29565 9.06849C8.29565 9.0589 8.29469 9.04914 8.29437 9.03954C8.29341 9.01075 8.29261 8.98212 8.29277 8.95381L8.29789 7.00254L8.13795 6.91041L7.31857 6.43795C7.15048 6.33702 6.96529 6.26779 6.77221 6.2337V6.23482C6.77094 6.24474 6.77014 6.25514 6.76902 6.26505C6.7679 6.27497 6.76662 6.2868 6.76566 6.298C6.76566 6.30264 6.7647 6.30696 6.76422 6.31159C6.76294 6.32631 6.7623 6.34134 6.7615 6.35638C6.7615 6.36454 6.76038 6.37237 6.76006 6.38085V6.38677C6.75899 6.41204 6.75841 6.43768 6.7583 6.4637V6.46834L6.74902 9.84932C6.74902 9.87321 6.74934 9.89715 6.74998 9.92114C6.74998 9.92577 6.74998 9.93025 6.74998 9.93489C6.74998 9.94465 6.75094 9.95456 6.75142 9.96432C6.7519 9.97408 6.75222 9.98687 6.75302 9.99823C6.75302 10.007 6.75446 10.016 6.7551 10.0249C6.75574 10.0339 6.7567 10.0456 6.75766 10.056C6.75766 10.0625 6.75862 10.0692 6.75926 10.0758C6.7607 10.0907 6.76262 10.1057 6.76422 10.1207C6.76518 10.1291 6.76598 10.1367 6.76694 10.1459L6.7679 10.1538C6.77131 10.1805 6.77509 10.2072 6.77925 10.2338V10.2361C6.77925 10.2405 6.78085 10.2452 6.78165 10.2497C6.78517 10.2712 6.78885 10.2928 6.79285 10.3146C6.79365 10.3187 6.79461 10.3229 6.79541 10.3271C6.79749 10.3379 6.79988 10.3488 6.80212 10.3591C6.80436 10.3693 6.80708 10.3845 6.8098 10.3971C6.8114 10.4046 6.81332 10.4122 6.81508 10.4195C6.81774 10.4311 6.82046 10.4428 6.82324 10.4545C6.82531 10.4633 6.82723 10.4721 6.82931 10.4808C6.83139 10.4894 6.83523 10.503 6.83811 10.514C6.84099 10.5251 6.84419 10.5374 6.84723 10.5489C6.84883 10.5545 6.85011 10.5601 6.85155 10.5649C6.85586 10.5809 6.86066 10.5969 6.86546 10.6129C6.86834 10.6226 6.87106 10.6324 6.87394 10.6421L6.87618 10.6501C6.8846 10.6778 6.89345 10.7054 6.90273 10.733V10.7344L6.9064 10.745C6.91424 10.7682 6.9224 10.7914 6.93072 10.8146C6.93216 10.8186 6.93375 10.8226 6.93519 10.8266C6.93855 10.8358 6.94207 10.845 6.94559 10.8542C6.95039 10.8672 6.95519 10.88 6.96014 10.8929C6.9635 10.9016 6.96702 10.91 6.97054 10.9187L6.9827 10.9489C6.98574 10.9561 6.98845 10.9635 6.99149 10.9707C6.99773 10.9857 7.00429 11.0007 7.01085 11.0158C7.0142 11.0236 7.0174 11.0318 7.02092 11.0391L7.02444 11.0473C7.03596 11.0732 7.04774 11.099 7.05979 11.1249L7.06139 11.1284C7.06491 11.1357 7.06858 11.1431 7.0721 11.1504C7.08154 11.1701 7.09082 11.1899 7.10057 11.2095L7.10537 11.2187C7.11353 11.2347 7.12137 11.2507 7.13032 11.2667C7.13704 11.2797 7.14344 11.2926 7.15031 11.3054L7.15415 11.3123C7.17644 11.3539 7.19952 11.395 7.22341 11.4358C7.22549 11.4393 7.22725 11.4428 7.22933 11.4463C7.2314 11.4498 7.23428 11.4538 7.23652 11.4577C7.27064 11.5153 7.3062 11.5719 7.3432 11.6275C7.34528 11.6306 7.34704 11.6338 7.34912 11.637C7.3512 11.6402 7.35616 11.6467 7.35952 11.6519C7.38895 11.6954 7.41885 11.7385 7.45004 11.7806L7.45916 11.7924C7.47835 11.8182 7.49781 11.8438 7.51754 11.8692L7.5209 11.8735C7.53689 11.893 7.55193 11.9122 7.5676 11.9313L7.58151 11.9484L7.58263 11.9497C7.603 11.9742 7.62363 11.9983 7.64453 12.0221L7.64709 12.025L7.66516 12.045C7.67892 12.061 7.69283 12.076 7.70675 12.0912L7.71395 12.0987C7.7229 12.1082 7.73186 12.1174 7.74082 12.1269C7.74977 12.1363 7.76161 12.149 7.7728 12.1598L7.78368 12.1707C7.7936 12.1806 7.80351 12.1904 7.81359 12.2001C7.82366 12.2099 7.83118 12.2179 7.84014 12.2264L7.85453 12.2398C7.86525 12.25 7.87612 12.2601 7.88652 12.27C7.89436 12.2772 7.90252 12.2846 7.90987 12.2916L7.92747 12.3076L7.95945 12.3362C7.96633 12.3422 7.97305 12.3484 7.98009 12.3542C7.98712 12.3599 7.99448 12.3658 8.00152 12.3716L8.03351 12.3981C8.03926 12.4028 8.04486 12.4076 8.05062 12.4122C8.05958 12.4193 8.06869 12.426 8.07765 12.4328C8.08661 12.4397 8.0978 12.4488 8.10788 12.4559L8.12051 12.4655C8.13267 12.4744 8.14515 12.4829 8.1573 12.4917C8.16578 12.4978 8.17425 12.504 8.18289 12.5099L8.18977 12.5149C8.21216 12.5302 8.23471 12.5452 8.25742 12.5597L8.26094 12.5619C8.28189 12.5752 8.30301 12.5881 8.32492 12.6006L8.34091 12.6097L11.1469 14.2304C11.1639 14.2402 11.1808 14.2497 11.1976 14.2587L11.2171 14.2688L11.2429 14.2821C11.2496 14.2854 11.2563 14.2891 11.2629 14.2925C11.2737 14.2979 11.2846 14.3027 11.2949 14.3085L11.3176 14.3192L11.3267 14.3235C11.348 14.3331 11.3693 14.3421 11.3907 14.3505L11.3932 14.3515C11.4138 14.3597 11.4343 14.3674 11.4546 14.3745L11.4633 14.3774L11.4868 14.3851C11.4973 14.3886 11.5081 14.3923 11.5188 14.3955L11.5348 14.4001L11.5631 14.408C11.5701 14.4099 11.5773 14.4121 11.5842 14.4139C11.5911 14.4156 11.6002 14.4172 11.6074 14.419L11.6355 14.4252L11.6498 14.4284L11.664 14.4308C11.6746 14.3854 11.6834 14.3384 11.6901 14.2893C11.7016 14.2067 11.7077 14.1234 11.7083 14.0399Z"
    fill="url(#paint0_linear_210_14207)" />
  <path
    d="M10.1279 6.27292L8.19086 5.15446L7.87658 4.97293L7.32478 4.65432C5.58639 3.65086 4.16723 4.45968 4.16148 6.45718L4.15236 9.67758C4.14676 11.6768 5.55664 14.1179 7.29503 15.1215L10.0982 16.7398C11.8364 17.7434 13.2557 16.9352 13.2613 14.9371L13.2653 13.5197V13.393L13.2701 11.716C13.2762 9.71868 11.8661 7.27655 10.1279 6.27292ZM11.7128 12.7025V12.77L11.7092 14.0403C11.7091 14.1235 11.7035 14.2066 11.6924 14.2891C11.6857 14.3382 11.6764 14.3851 11.6664 14.4307C11.4999 15.1504 10.8617 15.3929 10.1036 14.9553L7.30015 13.3375C6.41792 12.8284 5.70251 11.589 5.70538 10.5747L5.7145 7.35364C5.71658 6.62991 6.08428 6.21391 6.61561 6.22046C6.6685 6.22141 6.72126 6.22616 6.77347 6.2347C6.96632 6.26886 7.15129 6.33809 7.31918 6.43894L8.1376 6.91061L8.29754 7.00273L10.1231 8.05674C11.005 8.56663 11.7209 9.80553 11.7176 10.8199L11.7128 12.7025Z"
    fill="url(#paint1_linear_210_14207)" />
  <path
    d="M15.6911 10.1189C15.6911 10.1098 15.6901 10.1005 15.6898 10.0914C15.6898 10.0725 15.6881 10.0535 15.6871 10.0346C15.686 10.0121 15.6853 9.98986 15.6839 9.96715C15.6828 9.94955 15.681 9.93164 15.6796 9.91389C15.6782 9.89613 15.6765 9.8739 15.6748 9.85375C15.6737 9.84063 15.6729 9.82752 15.6716 9.8144C15.6687 9.78465 15.665 9.75474 15.6617 9.725C15.6598 9.709 15.6583 9.69301 15.6562 9.67701C15.6562 9.67174 15.6551 9.66646 15.6545 9.66102C15.6479 9.60856 15.6404 9.55588 15.6319 9.503L15.6311 9.49836C15.6297 9.48924 15.6279 9.48013 15.6263 9.47101C15.6195 9.42879 15.6124 9.38656 15.6044 9.34418C15.6028 9.3357 15.6009 9.32738 15.5993 9.31891C15.5951 9.29763 15.5907 9.27636 15.5863 9.25493C15.5812 9.22982 15.5766 9.20487 15.5703 9.17992C15.5672 9.16504 15.5633 9.15017 15.56 9.13529C15.5547 9.11226 15.5494 9.08923 15.544 9.0662C15.5398 9.04909 15.5363 9.03197 15.532 9.01486C15.5265 8.99295 15.5203 8.97088 15.5147 8.9488C15.5091 8.92673 15.5029 8.90306 15.4966 8.88019C15.4937 8.86931 15.491 8.85844 15.488 8.8482C15.4792 8.81621 15.4696 8.78518 15.4603 8.75368C15.4547 8.7348 15.4494 8.71577 15.4443 8.6969C15.4427 8.69178 15.4414 8.68666 15.4398 8.6809C15.4231 8.62642 15.4057 8.57198 15.3875 8.5176L15.3864 8.5144C15.3839 8.50689 15.3811 8.49953 15.3786 8.49201C15.3626 8.44691 15.3477 8.40165 15.3306 8.35654C15.3277 8.34855 15.3245 8.34055 15.3216 8.33255C15.3149 8.31416 15.3079 8.29577 15.3008 8.27737C15.2914 8.25226 15.2823 8.22715 15.2725 8.20204C15.266 8.18509 15.2589 8.16829 15.2521 8.15134C15.2441 8.13129 15.236 8.1113 15.2279 8.09136C15.2222 8.07713 15.2167 8.06289 15.2108 8.04882C15.1983 8.01891 15.1854 7.98932 15.1726 7.95957C15.166 7.94358 15.1596 7.92902 15.1529 7.91367L15.1462 7.89767C15.1236 7.8466 15.1004 7.79569 15.0766 7.74493L15.0734 7.73821C15.0662 7.72222 15.0585 7.70782 15.0513 7.69247C15.0331 7.65424 15.0149 7.61602 14.996 7.57811C14.993 7.57203 14.9896 7.56596 14.9866 7.55972C14.9706 7.52773 14.9546 7.49574 14.9375 7.46471C14.9244 7.43928 14.9116 7.41385 14.8981 7.38858C14.8956 7.38394 14.8928 7.37947 14.8903 7.37467C14.8464 7.29288 14.8009 7.21185 14.7539 7.13156C14.7499 7.12468 14.7463 7.1178 14.7423 7.11093C14.7305 7.09077 14.718 7.0711 14.706 7.05111C14.6859 7.01768 14.6659 6.98425 14.6453 6.95115C14.6273 6.92236 14.6091 6.89389 14.5909 6.86542C14.5699 6.83343 14.5491 6.80032 14.5277 6.76801C14.5205 6.75698 14.5136 6.74578 14.5063 6.73491C14.4989 6.72403 14.4923 6.71555 14.4856 6.70564C14.4276 6.61975 14.3686 6.53482 14.3075 6.45181L14.3067 6.45053C14.3007 6.44237 14.2943 6.43454 14.2884 6.42654C14.2507 6.37579 14.2124 6.32556 14.1736 6.27588L14.1669 6.26708C14.1365 6.22853 14.1055 6.19079 14.0746 6.15288C14.0655 6.14185 14.0567 6.13049 14.0476 6.11945L14.0455 6.11689C14.0054 6.0687 13.9648 6.02114 13.9236 5.97423L13.9183 5.96847C13.9066 5.95503 13.8945 5.94224 13.8827 5.92896C13.8555 5.89858 13.8283 5.86787 13.8006 5.83812L13.7865 5.8234C13.7689 5.80453 13.751 5.78614 13.7331 5.76742C13.7126 5.74599 13.6923 5.72408 13.6715 5.70345C13.6645 5.69625 13.6571 5.68937 13.6499 5.68218C13.6304 5.6625 13.6108 5.64331 13.5911 5.62396C13.5714 5.6046 13.5564 5.58909 13.5388 5.57214C13.5293 5.56318 13.5198 5.55454 13.5103 5.54559C13.489 5.52543 13.4676 5.5056 13.4463 5.48593C13.4303 5.47185 13.4159 5.4573 13.4006 5.44338C13.3892 5.43315 13.3776 5.42339 13.366 5.41316C13.3447 5.39407 13.3231 5.3752 13.3013 5.35654C13.2877 5.34486 13.2744 5.33271 13.2606 5.32119C13.2469 5.30967 13.2323 5.29832 13.2183 5.28664C13.1969 5.26916 13.1756 5.25183 13.1543 5.23466C13.1429 5.22555 13.1317 5.21595 13.1202 5.20683C13.1025 5.19292 13.0846 5.1798 13.0668 5.16605C13.049 5.15229 13.0271 5.1355 13.0073 5.12062C12.999 5.11439 12.9913 5.10783 12.9824 5.10159C12.9582 5.08384 12.9344 5.06704 12.9094 5.04977C12.8934 5.03794 12.8761 5.02578 12.8594 5.01426L12.8456 5.00451C12.8015 4.97423 12.757 4.94485 12.7124 4.91638H12.7114L12.7047 4.91222C12.6633 4.88599 12.6215 4.86024 12.5796 4.83561L12.5488 4.8177L9.74723 3.19942C9.71386 3.18012 9.68059 3.16151 9.64743 3.1436C9.63463 3.13672 9.622 3.13048 9.6092 3.12377L9.55818 3.09738C9.54507 3.09066 9.53179 3.08346 9.51883 3.0769C9.49724 3.06619 9.47597 3.05675 9.45486 3.04667C9.43982 3.03964 9.42495 3.03228 9.41008 3.02556L9.392 3.01709C9.34935 2.99821 9.30745 2.98046 9.26629 2.96383L9.25989 2.96143C9.21975 2.94543 9.17992 2.9304 9.1401 2.91632L9.12186 2.90961C9.10587 2.90433 9.09115 2.89953 9.0758 2.89457C9.05485 2.88769 9.03389 2.88034 9.0131 2.8741C9.00207 2.87074 8.99119 2.86818 8.98015 2.86498C8.9616 2.85954 8.94321 2.85459 8.92466 2.84899C8.91074 2.84531 8.89667 2.84083 8.88291 2.83747C8.86916 2.83411 8.85268 2.83155 8.83733 2.82804C8.81893 2.82388 8.80038 2.81956 8.78215 2.81556C8.77287 2.81364 8.76328 2.81108 8.754 2.80932C8.73625 2.8058 8.71897 2.80372 8.70122 2.80069C8.67995 2.79701 8.65851 2.79317 8.63724 2.79013C8.63036 2.78933 8.62301 2.78773 8.61597 2.78677C8.59806 2.78357 8.58046 2.78357 8.56271 2.78133C8.54 2.77877 8.51729 2.77621 8.49489 2.77446C8.48866 2.77446 8.4821 2.77302 8.47586 2.77254C8.45987 2.77142 8.44531 2.77174 8.4298 2.77094C8.40277 2.76966 8.37606 2.76854 8.34919 2.76758C8.34199 2.76758 8.33463 2.76758 8.32744 2.76758C8.31576 2.76758 8.30456 2.76902 8.29289 2.76918C8.2593 2.76918 8.22603 2.77142 8.19325 2.77382C8.18349 2.77382 8.17341 2.77382 8.16382 2.77526C8.14958 2.77653 8.13583 2.77861 8.12175 2.78021L8.09136 2.78357C8.05442 2.78853 8.01779 2.79413 7.9818 2.80149L7.97781 2.80277C7.96709 2.805 7.95669 2.80788 7.94582 2.81028C7.91655 2.81684 7.88744 2.82372 7.85897 2.83171C7.84442 2.83587 7.83034 2.84067 7.81595 2.84531C7.79755 2.85107 7.77884 2.85619 7.76061 2.86274C7.75581 2.86434 7.75133 2.86674 7.74669 2.86834C7.71822 2.87874 7.69071 2.89041 7.66304 2.90241C7.64961 2.90817 7.63585 2.91344 7.62274 2.91952C7.58243 2.93839 7.54277 2.95871 7.50454 2.98094L5.96191 3.87661C6.0003 3.85437 6.03981 3.83406 6.07995 3.81519C6.09323 3.80895 6.10698 3.80383 6.12042 3.79792C6.14793 3.78592 6.17559 3.77424 6.2039 3.76385C6.22662 3.75553 6.24981 3.74785 6.27316 3.74082C6.28755 3.73634 6.30163 3.73138 6.31618 3.72722C6.34465 3.71922 6.37392 3.71235 6.40303 3.70579C6.41359 3.70339 6.42398 3.70051 6.43502 3.69827C6.47228 3.69076 6.51019 3.68468 6.54858 3.67956C6.55865 3.67828 6.56889 3.67716 6.57897 3.67604C6.60264 3.67332 6.62695 3.6714 6.65046 3.66964C6.68325 3.66708 6.71651 3.66564 6.7501 3.66485C6.76881 3.66485 6.78737 3.66373 6.80624 3.66389C6.83279 3.66389 6.85982 3.66532 6.88621 3.6666C6.9078 3.66756 6.9294 3.66836 6.95131 3.67012C6.97322 3.67188 6.99641 3.6746 7.01912 3.677C7.04183 3.6794 7.0687 3.68244 7.09397 3.68596C7.11509 3.689 7.13636 3.69283 7.15795 3.69651C7.18482 3.70115 7.21169 3.70579 7.23888 3.71155C7.25711 3.71539 7.27567 3.71954 7.29406 3.72386C7.32306 3.73058 7.35222 3.73783 7.38155 3.74562C7.39994 3.75057 7.41849 3.75553 7.43689 3.76161C7.46888 3.77073 7.50086 3.7808 7.53285 3.7912C7.54885 3.79616 7.5634 3.80095 7.57875 3.80623C7.62418 3.82223 7.66976 3.83822 7.71582 3.85693L7.72222 3.85933C7.7702 3.87853 7.81819 3.89948 7.86617 3.92139C7.88104 3.92811 7.89592 3.93546 7.91095 3.9425C7.94539 3.95871 7.97999 3.97561 8.01475 3.9932C8.03171 4.00184 8.04871 4.01064 8.06577 4.01959C8.11152 4.04374 8.15742 4.06838 8.20364 4.09509L11.0077 5.71352C11.0599 5.74359 11.1117 5.775 11.1632 5.80773L11.1705 5.81221C11.2201 5.8442 11.2694 5.87618 11.3183 5.91057C11.3351 5.92225 11.3518 5.9344 11.3684 5.94624C11.4004 5.96943 11.4338 5.99294 11.4663 6.01709C11.4861 6.03197 11.5058 6.04716 11.5256 6.06236C11.5549 6.08485 11.5841 6.10778 11.6133 6.13113C11.6346 6.14819 11.6559 6.16546 11.6772 6.18295C11.7051 6.20598 11.7327 6.22933 11.7602 6.253C11.7816 6.27166 11.8029 6.29048 11.8242 6.30946C11.8512 6.33335 11.8779 6.35761 11.9042 6.38224C11.9256 6.40191 11.9471 6.42174 11.9682 6.44189C11.9954 6.46764 12.0224 6.49387 12.0493 6.52027C12.0688 6.53946 12.0884 6.55865 12.1078 6.57816C12.1358 6.60631 12.1633 6.6351 12.191 6.66389C12.2089 6.6826 12.2268 6.701 12.2445 6.72003C12.2765 6.75458 12.3085 6.78993 12.3405 6.82527C12.3523 6.83855 12.3645 6.8515 12.3763 6.86494C12.4199 6.91452 12.463 6.9649 12.5056 7.01608C12.5147 7.02712 12.5235 7.03847 12.5326 7.04951C12.5659 7.09013 12.5991 7.13092 12.6316 7.1725C12.6704 7.22208 12.7086 7.27231 12.7463 7.32317C12.7525 7.33164 12.7591 7.33916 12.7655 7.34844C12.8266 7.43145 12.8857 7.51638 12.9436 7.6021C12.9577 7.6229 12.972 7.64369 12.9857 7.66464C13.007 7.69663 13.0279 7.72942 13.0489 7.76204C13.0671 7.79051 13.0854 7.81898 13.1033 7.84777C13.1239 7.88088 13.1439 7.91431 13.164 7.94774C13.18 7.97445 13.196 8.00116 13.212 8.02771C13.2589 8.108 13.3044 8.18909 13.3485 8.27098C13.3644 8.30072 13.3804 8.33063 13.3953 8.36038C13.4102 8.39013 13.4286 8.42436 13.4446 8.45635C13.4667 8.50033 13.4882 8.54463 13.5094 8.58894C13.5167 8.60493 13.5242 8.61933 13.5314 8.63468C13.5587 8.69279 13.5854 8.75144 13.6114 8.81062C13.6181 8.82661 13.6247 8.84148 13.6312 8.857C13.6501 8.90072 13.6685 8.94459 13.6866 8.98863C13.6948 9.00867 13.7028 9.02867 13.7107 9.04861C13.7275 9.09062 13.7435 9.13268 13.7587 9.1748C13.7656 9.19319 13.7726 9.21159 13.7795 9.22998C13.7989 9.28329 13.8176 9.33661 13.8356 9.38992C13.8382 9.39728 13.8409 9.40479 13.8435 9.41215C13.8637 9.47272 13.883 9.53328 13.9014 9.59384C13.9071 9.61288 13.9124 9.63191 13.9174 9.65094C13.9298 9.69317 13.942 9.73539 13.9534 9.77762C13.9596 9.80065 13.9655 9.82368 13.9716 9.84687C13.9817 9.88579 13.9914 9.92471 14.0007 9.96363C14.0062 9.98676 14.0116 10.0098 14.0167 10.0329C14.0258 10.0728 14.0343 10.1126 14.0423 10.1525C14.0466 10.1738 14.0511 10.1951 14.0552 10.2165C14.065 10.2674 14.0741 10.3181 14.0823 10.3686C14.0837 10.3777 14.0856 10.3868 14.0871 10.3959C14.0965 10.4557 14.1049 10.5152 14.1122 10.5744C14.1143 10.5904 14.1157 10.6064 14.1176 10.6224C14.1225 10.6651 14.1269 10.708 14.1307 10.7512C14.1325 10.7713 14.1341 10.7913 14.1355 10.8113C14.1385 10.8516 14.141 10.8918 14.1429 10.9317C14.1438 10.9508 14.1448 10.9698 14.1456 10.9888C14.1477 11.0455 14.149 11.1018 14.1488 11.1577L14.1397 14.3788C14.1397 14.4375 14.1379 14.4949 14.1354 14.5515C14.1354 14.5675 14.1333 14.5835 14.1325 14.5995C14.1302 14.6384 14.1277 14.6769 14.1242 14.7148C14.1222 14.7367 14.1198 14.7582 14.1174 14.7798C14.1139 14.8117 14.1103 14.8437 14.1059 14.8757C14.1027 14.8988 14.0994 14.9213 14.0957 14.9439C14.0911 14.9729 14.0862 15.0015 14.0808 15.0297C14.076 15.055 14.071 15.08 14.0658 15.1048C14.0606 15.1295 14.0548 15.1546 14.0485 15.1801C14.0415 15.2092 14.034 15.2379 14.0261 15.2661C14.0199 15.2884 14.0136 15.3104 14.0069 15.3322C13.9965 15.3659 13.9855 15.3989 13.974 15.4315C13.9676 15.4494 13.9615 15.4675 13.9549 15.4851C13.934 15.5401 13.9118 15.5937 13.8875 15.645C13.8686 15.685 13.8489 15.724 13.8281 15.7616C13.8259 15.7658 13.8232 15.7696 13.8209 15.7738C13.8019 15.8077 13.7822 15.8406 13.7617 15.8726C13.7568 15.8803 13.7515 15.8877 13.7457 15.8953C13.7285 15.9213 13.7107 15.9466 13.6925 15.9713C13.685 15.9814 13.6773 15.9915 13.6696 16.0014C13.6519 16.0242 13.6337 16.0464 13.6151 16.0679C13.6082 16.0761 13.6013 16.0839 13.5943 16.0922C13.5689 16.1207 13.5426 16.1484 13.5156 16.1746C13.5114 16.1786 13.507 16.1824 13.5028 16.1864C13.4796 16.2085 13.4558 16.2298 13.4315 16.2504C13.4225 16.2579 13.4132 16.2653 13.4041 16.2726C13.3828 16.2896 13.3615 16.3059 13.3401 16.3216C13.331 16.3281 13.3221 16.3349 13.3128 16.3411C13.2822 16.3621 13.2512 16.3822 13.2192 16.4008L14.7617 15.5051C14.7937 15.4865 14.8247 15.4664 14.8554 15.4454C14.8647 15.4392 14.8736 15.4325 14.8826 15.4259C14.9045 15.4102 14.9258 15.3939 14.9466 15.377C14.9557 15.3696 14.965 15.3623 14.9739 15.3547C14.9983 15.3343 15.0222 15.3129 15.0456 15.2908C15.0497 15.2869 15.0541 15.2833 15.0581 15.2793C15.0851 15.253 15.1113 15.2254 15.1368 15.1969C15.1438 15.1889 15.1507 15.1809 15.1577 15.1724C15.1763 15.1511 15.1944 15.1289 15.2122 15.1059C15.2199 15.096 15.2282 15.0859 15.2351 15.0758C15.2533 15.0512 15.271 15.0259 15.2882 15C15.2933 14.9923 15.2986 14.985 15.3042 14.9771L15.309 14.9701C15.3279 14.9405 15.3456 14.9098 15.3632 14.8788C15.3656 14.8744 15.3683 14.8706 15.3707 14.8663C15.3908 14.83 15.4099 14.7927 15.4282 14.7543L15.4301 14.7497C15.4544 14.6983 15.4766 14.6448 15.4976 14.5897C15.4995 14.5848 15.5017 14.5803 15.5037 14.5754C15.5083 14.5627 15.5121 14.5491 15.5166 14.5363C15.5281 14.5043 15.5393 14.4706 15.5497 14.4368C15.5526 14.4276 15.556 14.4189 15.5587 14.4097C15.5624 14.3972 15.5652 14.3837 15.5688 14.3711C15.5766 14.3427 15.5842 14.314 15.5913 14.2849C15.5942 14.2727 15.5979 14.2614 15.6006 14.2491C15.6033 14.2368 15.6057 14.2228 15.6084 14.2099C15.6137 14.185 15.6188 14.1599 15.6236 14.1346C15.6262 14.1213 15.6292 14.1085 15.6316 14.0951C15.634 14.0816 15.6361 14.0642 15.6385 14.049C15.642 14.0264 15.6455 14.0037 15.6487 13.9807C15.6503 13.9687 15.6526 13.9572 15.654 13.945C15.6564 13.9255 15.658 13.9052 15.6602 13.8855C15.6625 13.8659 15.665 13.8423 15.667 13.8203C15.6678 13.8113 15.669 13.8027 15.6697 13.7937C15.6721 13.7649 15.6734 13.735 15.6751 13.7056C15.6761 13.6896 15.6774 13.6736 15.6782 13.6576C15.6782 13.6536 15.6782 13.6498 15.6782 13.6458C15.6803 13.596 15.6815 13.5454 15.6817 13.494V13.485L15.6908 10.264C15.6924 10.2146 15.6925 10.1663 15.6911 10.1189Z"
    fill="url(#paint2_linear_210_14207)" />
  <defs>
    <linearGradient id="paint0_linear_210_14207" x1="6.74902" y1="10.332" x2="11.7118" y2="10.332"
      gradientUnits="userSpaceOnUse">
      <stop stop-color="#FFAA55" />
      <stop offset="1" stop-color="#E661C9" />
    </linearGradient>
    <linearGradient id="paint1_linear_210_14207" x1="4.15236" y1="10.6972" x2="13.2706" y2="10.6972"
      gradientUnits="userSpaceOnUse">
      <stop stop-color="#00D2C9" />
      <stop offset="1" stop-color="#E661C9" />
    </linearGradient>
    <linearGradient id="paint2_linear_210_14207" x1="115.991" y1="583.705" x2="707.973" y2="583.705"
      gradientUnits="userSpaceOnUse">
      <stop stop-color="#FFAA55" />
      <stop offset="1" stop-color="#E661C9" />
    </linearGradient>
  </defs>
</svg>
