<svg width="20" height="20" viewBox="0 0 20 20" fill="none" xmlns="http://www.w3.org/2000/svg">
  <path fill-rule="evenodd" clip-rule="evenodd"
    d="M13.0175 7.83716C13.2678 8.0875 13.2678 8.49334 13.0175 8.74367L9.59863 12.1625C9.3483 12.4128 8.94238 12.4128 8.69205 12.1625L6.98267 10.4531C6.73234 10.2028 6.73234 9.79692 6.98267 9.54659C7.23301 9.29626 7.63888 9.29626 7.88922 9.54659L9.14538 10.8027L12.1109 7.83716C12.3612 7.58683 12.767 7.58683 13.0175 7.83716Z"
    fill="#33E097" stroke="#33E097" stroke-width="0.5" />
  <path fill-rule="evenodd" clip-rule="evenodd"
    d="M10.0003 2.94855C6.10601 2.94855 2.94904 6.10552 2.94904 9.99984C2.94904 13.8942 6.10601 17.0511 10.0003 17.0511C13.8947 17.0511 17.0516 13.8942 17.0516 9.99984C17.0516 6.10552 13.8947 2.94855 10.0003 2.94855ZM1.66699 9.99984C1.66699 5.39746 5.39795 1.6665 10.0003 1.6665C14.6027 1.6665 18.3337 5.39746 18.3337 9.99984C18.3337 14.6022 14.6027 18.3332 10.0003 18.3332C5.39795 18.3332 1.66699 14.6022 1.66699 9.99984Z"
    fill="#33E097" stroke="#33E097" stroke-width="0.5" />
</svg>
