<svg width="60" height="60" viewBox="0 0 60 60" fill="none" xmlns="http://www.w3.org/2000/svg">
  <circle cx="30" cy="30" r="27.5" fill="#122431" stroke="#0A1D2C" stroke-width="5" />
  <g clip-path="url(#clip0_209_13928)">
    <path
      d="M23.9477 24.0894C23.3134 24.7237 22.6865 25.3506 22.0522 25.9849C21.7462 26.2909 21.3955 26.4252 20.9626 26.3356C20.5149 26.2386 20.2089 25.97 20.0671 25.5446C19.9179 25.1043 20.0223 24.6938 20.3507 24.3655C21.694 23.0222 23.0373 21.6789 24.388 20.3431C24.7388 19.9998 25.1716 19.9177 25.6268 20.1043C26.082 20.2909 26.3283 20.6416 26.3656 21.1341C26.3731 21.2386 26.3656 21.3356 26.3656 21.4401C26.3656 25.6938 26.3656 29.9476 26.3656 34.1938C26.3656 35.9103 27.4925 37.3132 29.1716 37.6789C29.4179 37.7312 29.6716 37.7461 29.9179 37.761C30.5597 37.7983 31.0597 38.3058 31.0597 38.9401C31.0597 39.5819 30.5373 40.1043 29.8805 40.1118C27.1791 40.1715 24.6716 38.1416 24.1194 35.455C24.0223 34.9849 24 34.5147 24 34.0446C24 30.8356 24 27.6267 24 24.4177C24 24.3207 24 24.2237 24 24.1192C23.9925 24.1043 23.9701 24.0968 23.9477 24.0894Z"
      fill="#33E097" />
    <path
      d="M36.1121 36.0744C36.1643 35.9849 36.2091 35.8879 36.2838 35.8132C36.8509 35.2386 37.4255 34.6565 38.0076 34.0968C38.4703 33.6491 39.1942 33.664 39.6494 34.1117C40.1046 34.5595 40.1345 35.2909 39.6867 35.7461C38.4255 37.0073 37.1569 38.261 35.8957 39.5147C35.8136 39.5968 35.739 39.6715 35.6569 39.7535C35.2987 40.0968 34.8733 40.2088 34.4032 40.0222C33.933 39.8356 33.6867 39.4774 33.6494 38.9774C33.642 38.8879 33.6494 38.7909 33.6494 38.7013C33.6494 34.47 33.6494 30.2312 33.6494 25.9998C33.6494 23.9476 32.1942 22.4401 30.1345 22.3655C29.4554 22.3431 28.9405 21.8207 28.9554 21.1715C28.9629 20.5222 29.4927 20.0147 30.1718 20.0147C33.0449 19.9998 35.5897 22.2312 35.9554 25.0744C36.0002 25.4252 36.0076 25.7759 36.0076 26.1341C36.0076 29.3282 36.0076 32.5147 36.0076 35.7088C36.0076 35.8058 36.0076 35.9103 36.0076 36.0073C36.0375 36.0222 36.0748 36.0446 36.1121 36.0744Z"
      fill="#C6171C" />
  </g>
  <defs>
    <clipPath id="clip0_209_13928">
      <rect width="20.1119" height="20" fill="white" transform="translate(20 40.1118) rotate(-90)" />
    </clipPath>
  </defs>
</svg>
