<svg width="20" height="20" viewBox="0 0 20 20" fill="none" xmlns="http://www.w3.org/2000/svg">
  <g clip-path="url(#clip0_393_12268)">
    <path
      d="M19.5467 3.70249C19.2325 3.84184 18.9094 3.95945 18.5794 4.05494C18.9701 3.613 19.2681 3.093 19.45 2.52397C19.4907 2.39642 19.4485 2.25681 19.3436 2.17339C19.2389 2.08991 19.0934 2.07991 18.9781 2.14823C18.2772 2.56397 17.5209 2.86274 16.728 3.03745C15.9292 2.25694 14.8443 1.81274 13.7227 1.81274C11.3553 1.81274 9.42925 3.73874 9.42925 6.1061C9.42925 6.29255 9.44105 6.47797 9.46441 6.66081C6.52667 6.40287 3.7955 4.95894 1.92002 2.65836C1.85318 2.57636 1.75021 2.53216 1.64479 2.54062C1.53931 2.54887 1.44454 2.60836 1.39125 2.69978C1.01086 3.35249 0.809763 4.099 0.809763 4.85855C0.809763 5.89307 1.17912 6.87462 1.83157 7.64158C1.63318 7.57287 1.44067 7.487 1.25692 7.385C1.15828 7.3301 1.03789 7.33094 0.939892 7.38713C0.841827 7.44333 0.780343 7.54668 0.777763 7.65965C0.777311 7.67868 0.777311 7.69771 0.777311 7.717C0.777311 9.2612 1.60841 10.6515 2.87905 11.4092C2.76989 11.3983 2.66079 11.3825 2.55241 11.3618C2.44067 11.3404 2.32576 11.3796 2.25041 11.4648C2.17492 11.55 2.14996 11.6687 2.18473 11.7771C2.65505 13.2455 3.86596 14.3255 5.32983 14.6548C4.1157 15.4153 2.72725 15.8136 1.2697 15.8136C0.965569 15.8136 0.659698 15.7957 0.360343 15.7603C0.211634 15.7426 0.06944 15.8304 0.0187948 15.9718C-0.0318503 16.1133 0.0218271 16.2711 0.148343 16.3522C2.02079 17.5527 4.18589 18.1873 6.40944 18.1873C10.7807 18.1873 13.5152 16.126 15.0394 14.3968C16.94 12.2406 18.0301 9.38662 18.0301 6.56668C18.0301 6.44887 18.0283 6.32991 18.0247 6.21133C18.7745 5.64636 19.4201 4.96262 19.9455 4.17674C20.0253 4.05739 20.0167 3.89965 19.9242 3.78978C19.8319 3.67984 19.678 3.64429 19.5467 3.70249Z"
      fill="white" />
  </g>
  <defs>
    <clipPath id="clip0_393_12268">
      <rect width="20" height="20" fill="white" />
    </clipPath>
  </defs>
</svg>
