<?xml version="1.0" standalone="no"?>
<!DOCTYPE svg PUBLIC "-//W3C//DTD SVG 20010904//EN" "http://www.w3.org/TR/2001/REC-SVG-20010904/DTD/svg10.dtd">
<svg version="1.0" xmlns="http://www.w3.org/2000/svg" width="225.000000pt" height="225.000000pt"
  viewBox="0 0 225.000000 225.000000" preserveAspectRatio="xMidYMid meet">

  <g transform="translate(0.000000,225.000000) scale(0.100000,-0.100000)" fill="#ffffff" stroke="none">
    <path d="M901 2225 c-228 -50 -425 -159 -583 -323 -153 -160 -249 -339 -292
-550 -19 -93 -20 -356 -1 -448 47 -225 145 -406 309 -570 241 -242 558 -356
898 -324 140 13 258 48 393 115 226 112 391 277 503 501 83 166 112 294 112
496 0 211 -30 340 -121 518 -156 305 -434 513 -777 585 -93 19 -351 19 -441 0z
m329 -155 c114 -14 189 -35 286 -80 438 -201 659 -691 517 -1145 -152 -488
-663 -770 -1158 -638 -88 23 -238 96 -314 152 -75 56 -158 140 -214 218 -46
64 -119 218 -140 298 -120 450 95 913 514 1109 174 81 332 107 509 86z" />
    <path d="M986 1510 l-136 -170 105 0 105 0 0 -280 0 -280 65 0 65 0 0 280 0
280 105 0 105 0 -136 170 c-75 94 -137 170 -139 170 -2 0 -64 -76 -139 -170z" />
    <path d="M570 705 l0 -135 555 0 555 0 0 135 0 135 -65 0 -65 0 0 -70 0 -70
-425 0 -425 0 0 70 0 70 -65 0 -65 0 0 -135z" />
  </g>
</svg>
